<svg xmlns="http://www.w3.org/2000/svg" version="1.1" xmlns:xlink="http://www.w3.org/1999/xlink" xmlns:svgjs="http://svgjs.dev/svgjs" width="1500" height="1687" viewBox="0 0 1500 1687"><g transform="matrix(1,0,0,1,0,0)"><svg viewBox="0 0 320 360" data-background-color="#ffffff" preserveAspectRatio="xMidYMid meet" height="1687" width="1500" xmlns="http://www.w3.org/2000/svg" xmlns:xlink="http://www.w3.org/1999/xlink"><g id="tight-bounds" transform="matrix(1,0,0,1,0,0)"><svg viewBox="0 0 320 360" height="360" width="320"><g><svg></svg></g><g><svg viewBox="0 0 320 360" height="360" width="320"><g><path d="M297.491 100.645c-12.426-21.51-112.674-79.355-137.491-79.355-24.817 0-125.028 57.845-137.491 79.355-11.591 20.02-11.591 138.726 0 158.746 12.463 21.474 112.674 79.319 137.491 79.319 24.817 0 125.064-57.845 137.491-79.355 11.591-20.02 11.591-138.69 0-158.71zM309.481 93.705c-14.461-24.998-119.469-86.295-149.481-86.295-30.012 0-135.02 61.297-149.481 86.295-14.025 24.199-14.025 148.391 0 172.59 14.461 24.998 119.469 86.295 149.481 86.295 30.012 0 135.02-61.297 149.481-86.259 14.025-24.235 14.025-148.427 0-172.626zM300.906 261.353c-12.753 22.055-115.472 81.317-140.906 81.318-25.434 0-128.153-59.298-140.906-81.354-11.881-20.529-11.881-142.178 0-162.707 12.753-22.019 115.472-81.281 140.906-81.281 25.434 0 128.153 59.298 140.906 81.318 11.881 20.529 11.881 142.178 0 162.706z" fill="#398378" fill-rule="nonzero" stroke="none" stroke-width="1" stroke-linecap="butt" stroke-linejoin="miter" stroke-miterlimit="10" stroke-dasharray="" stroke-dashoffset="0" font-family="none" font-weight="none" font-size="none" text-anchor="none" style="mix-blend-mode: normal" data-fill-palette-color="tertiary"></path></g><g transform="matrix(1,0,0,1,105.63805104408354,90)"><svg viewBox="0 0 108.72389791183294 180" height="180" width="108.72389791183294"><g><svg viewBox="0 0 108.72389791183294 180" height="180" width="108.72389791183294"><g><svg viewBox="0 0 108.72389791183294 180" height="180" width="108.72389791183294"><g id="textblocktransform"><svg viewBox="0 0 108.72389791183294 180" height="180" width="108.72389791183294" id="textblock"><g><svg viewBox="0 0 108.72389791183294 180" height="180" width="108.72389791183294"><g transform="matrix(1,0,0,1,0,0)"><svg width="108.72389791183294" viewBox="1.61 -30.98 19.07 31.57" height="180" data-palette-color="#ffffff"><path d="M9.81 0.59Q12.62 0.59 15.12-0.57 17.63-1.73 19.15-3.86 20.68-5.98 20.68-8.72L20.68-8.72Q20.68-10.67 19.68-12.11 18.68-13.55 17.24-14.54 15.8-15.53 13.35-16.82L13.35-16.82Q11.01-18.09 9.66-18.99 8.3-19.9 7.36-21.22 6.42-22.53 6.42-24.29L6.42-24.29Q6.42-26.59 7.67-27.76 8.91-28.93 10.86-28.93L10.86-28.93Q11.77-28.93 12.65-28.55 13.53-28.17 14.15-27.62 14.77-27.08 15.01-26.61L15.01-26.61 15.63-21.95 18.04-21.66Q18.12-22.71 18.31-25.05 18.51-27.39 18.58-28.54L18.58-28.54Q15.65-30.98 11.69-30.98L11.69-30.98Q9.23-30.98 7.06-29.96 4.88-28.93 3.54-26.98 2.2-25.02 2.2-22.36L2.2-22.36Q2.2-20.07 3.31-18.38 4.42-16.7 5.99-15.61 7.57-14.53 10.13-13.16L10.13-13.16Q12.21-12.04 13.39-11.25 14.58-10.47 15.38-9.41 16.19-8.35 16.19-7.01L16.19-7.01Q16.19-5.3 15.32-4.15 14.45-3 13.12-2.44 11.79-1.88 10.4-1.88L10.4-1.88Q8.79-1.88 7.43-2.59 6.08-3.3 5.37-4.32L5.37-4.32 4.42-8.91 1.93-9.25 1.61-2.25Q2.86-1.03 5.07-0.22 7.28 0.59 9.81 0.59L9.81 0.59Z" opacity="1" transform="matrix(1,0,0,1,0,0)" fill="#ffffff" class="wordmark-text-0" data-fill-palette-color="quaternary" id="text-0"></path></svg></g></svg></g></svg></g></svg></g><g></g></svg></g></svg></g></svg></g><defs></defs></svg><rect width="320" height="360" fill="none" stroke="none" visibility="hidden"></rect></g></svg></g></svg>